<svg width="54" height="54" viewBox="0 0 54 54" fill="none" xmlns="http://www.w3.org/2000/svg">
<path d="M26.584 2C40.1614 2 51.1688 13.0066 51.1689 26.584C51.1689 40.1615 40.1615 51.1689 26.584 51.1689C13.0066 51.1688 2 40.1614 2 26.584C2.00013 13.0067 13.0067 2.00013 26.584 2Z" stroke="#9D1111" stroke-width="4"/>
<path d="M29.6673 25.043H28.1257V18.8763H31.209C31.6179 18.8763 32.01 19.0387 32.2991 19.3278C32.5882 19.617 32.7507 20.0091 32.7507 20.418C32.7507 20.8268 32.9131 21.219 33.2022 21.5081C33.4913 21.7972 33.8834 21.9596 34.2923 21.9596C34.7012 21.9596 35.0933 21.7972 35.3824 21.5081C35.6716 21.219 35.834 20.8268 35.834 20.418C35.834 19.1913 35.3467 18.015 34.4794 17.1476C33.612 16.2802 32.4356 15.793 31.209 15.793H28.1257V12.7096C28.1257 12.3008 27.9632 11.9086 27.6741 11.6195C27.385 11.3304 26.9929 11.168 26.584 11.168C26.1751 11.168 25.783 11.3304 25.4939 11.6195C25.2047 11.9086 25.0423 12.3008 25.0423 12.7096V15.793H23.5007C21.8651 15.793 20.2966 16.4427 19.1402 17.5991C17.9837 18.7556 17.334 20.3241 17.334 21.9596C17.334 23.5951 17.9837 25.1637 19.1402 26.3201C20.2966 27.4766 21.8651 28.1263 23.5007 28.1263H25.0423V34.293H21.959C21.5501 34.293 21.158 34.1305 20.8689 33.8414C20.5797 33.5523 20.4173 33.1602 20.4173 32.7513C20.4173 32.3424 20.2549 31.9503 19.9658 31.6612C19.6767 31.3721 19.2845 31.2096 18.8757 31.2096C18.4668 31.2096 18.0746 31.3721 17.7855 31.6612C17.4964 31.9503 17.334 32.3424 17.334 32.7513C17.334 33.9779 17.8213 35.1543 18.6886 36.0217C19.556 36.889 20.7324 37.3763 21.959 37.3763H25.0423V40.4596C25.0423 40.8685 25.2047 41.2606 25.4939 41.5498C25.783 41.8389 26.1751 42.0013 26.584 42.0013C26.9929 42.0013 27.385 41.8389 27.6741 41.5498C27.9632 41.2606 28.1257 40.8685 28.1257 40.4596V37.3763H29.6673C31.3028 37.3763 32.8713 36.7266 34.0278 35.5701C35.1843 34.4137 35.834 32.8451 35.834 31.2096C35.834 29.5741 35.1843 28.0056 34.0278 26.8491C32.8713 25.6927 31.3028 25.043 29.6673 25.043V25.043ZM25.0423 25.043H23.5007C22.6829 25.043 21.8986 24.7181 21.3204 24.1399C20.7422 23.5616 20.4173 22.7774 20.4173 21.9596C20.4173 21.1419 20.7422 20.3576 21.3204 19.7794C21.8986 19.2012 22.6829 18.8763 23.5007 18.8763H25.0423V25.043ZM29.6673 34.293H28.1257V28.1263H29.6673C30.4851 28.1263 31.2693 28.4512 31.8476 29.0294C32.4258 29.6076 32.7507 30.3919 32.7507 31.2096C32.7507 32.0274 32.4258 32.8116 31.8476 33.3899C31.2693 33.9681 30.4851 34.293 29.6673 34.293Z" fill="#9D1111"/>
</svg>
