<svg width="53" height="53" viewBox="0 0 53 53" fill="none" xmlns="http://www.w3.org/2000/svg">
<path d="M44.1667 2.20898H8.83337C7.07631 2.20898 5.39122 2.90697 4.14879 4.1494C2.90636 5.39183 2.20837 7.07692 2.20837 8.83398V44.1673C2.20837 45.9244 2.90636 47.6095 4.14879 48.8519C5.39122 50.0943 7.07631 50.7923 8.83337 50.7923H44.1667C45.9238 50.7923 47.6089 50.0943 48.8513 48.8519C50.0937 47.6095 50.7917 45.9244 50.7917 44.1673V8.83398C50.7917 7.07692 50.0937 5.39183 48.8513 4.1494C47.6089 2.90697 45.9238 2.20898 44.1667 2.20898ZM17.6667 46.3756H8.83337C8.24769 46.3756 7.68599 46.143 7.27185 45.7288C6.8577 45.3147 6.62504 44.753 6.62504 44.1673V41.5615C7.3332 41.8186 8.08002 41.953 8.83337 41.959H17.6667V46.3756ZM17.6667 37.5423H8.83337C8.24769 37.5423 7.68599 37.3097 7.27185 36.8955C6.8577 36.4814 6.62504 35.9197 6.62504 35.334V32.7281C7.3332 32.9852 8.08002 33.1197 8.83337 33.1257H17.6667V37.5423ZM17.6667 28.709H8.83337C8.24769 28.709 7.68599 28.4763 7.27185 28.0622C6.8577 27.648 6.62504 27.0863 6.62504 26.5007V8.83398C6.62504 8.2483 6.8577 7.6866 7.27185 7.27246C7.68599 6.85831 8.24769 6.62565 8.83337 6.62565H17.6667V28.709ZM30.9167 46.3756H22.0834V33.1257H30.9167V46.3756ZM30.9167 28.709H22.0834V6.62565H30.9167V28.709ZM46.375 44.1673C46.375 44.753 46.1424 45.3147 45.7282 45.7288C45.3141 46.143 44.7524 46.3756 44.1667 46.3756H35.3334V41.959H44.1667C44.9201 41.953 45.6669 41.8186 46.375 41.5615V44.1673ZM46.375 35.334C46.375 35.9197 46.1424 36.4814 45.7282 36.8955C45.3141 37.3097 44.7524 37.5423 44.1667 37.5423H35.3334V33.1257H44.1667C44.9201 33.1197 45.6669 32.9852 46.375 32.7281V35.334ZM46.375 26.5007C46.375 27.0863 46.1424 27.648 45.7282 28.0622C45.3141 28.4763 44.7524 28.709 44.1667 28.709H35.3334V6.62565H44.1667C44.7524 6.62565 45.3141 6.85831 45.7282 7.27246C46.1424 7.6866 46.375 8.2483 46.375 8.83398V26.5007ZM39.75 15.459C39.3133 15.459 38.8863 15.5885 38.5232 15.8312C38.16 16.0738 37.8769 16.4187 37.7098 16.8222C37.5427 17.2257 37.4989 17.6698 37.5841 18.0981C37.6693 18.5265 37.8797 18.92 38.1885 19.2288C38.4974 19.5377 38.8908 19.748 39.3192 19.8332C39.7476 19.9184 40.1916 19.8747 40.5951 19.7076C40.9986 19.5404 41.3435 19.2574 41.5862 18.8942C41.8289 18.531 41.9584 18.1041 41.9584 17.6673C41.9584 17.0816 41.7257 16.5199 41.3116 16.1058C40.8974 15.6916 40.3357 15.459 39.75 15.459ZM13.25 19.8757C13.6868 19.8757 14.1138 19.7461 14.4769 19.5035C14.8401 19.2608 15.1231 18.9159 15.2903 18.5124C15.4574 18.1089 15.5012 17.6649 15.4159 17.2365C15.3307 16.8081 15.1204 16.4146 14.8116 16.1058C14.5027 15.7969 14.1092 15.5866 13.6809 15.5014C13.2525 15.4162 12.8085 15.4599 12.4049 15.6271C12.0014 15.7942 11.6565 16.0773 11.4139 16.4404C11.1712 16.8036 11.0417 17.2305 11.0417 17.6673C11.0417 18.253 11.2744 18.8147 11.6885 19.2288C12.1027 19.643 12.6644 19.8757 13.25 19.8757Z" fill="#9D1111"/>
</svg>
