<svg width="61" height="62" viewBox="0 0 61 62" fill="none" xmlns="http://www.w3.org/2000/svg">
<path d="M38.125 15.4993H22.875C22.2009 15.4993 21.5544 15.7715 21.0777 16.256C20.6011 16.7405 20.3333 17.3975 20.3333 18.0827V28.416C20.3333 29.1012 20.6011 29.7582 21.0777 30.2427C21.5544 30.7272 22.2009 30.9994 22.875 30.9994H38.125C38.7991 30.9994 39.4455 30.7272 39.9222 30.2427C40.3988 29.7582 40.6666 29.1012 40.6666 28.416V18.0827C40.6666 17.3975 40.3988 16.7405 39.9222 16.256C39.4455 15.7715 38.7991 15.4993 38.125 15.4993ZM35.5833 25.8327H25.4166V20.666H35.5833V25.8327ZM43.2083 5.16602H12.7083C12.0342 5.16602 11.3877 5.43819 10.9111 5.92266C10.4344 6.40713 10.1666 7.06421 10.1666 7.74935V54.2494C10.1666 54.9345 10.4344 55.5916 10.9111 56.076C11.3877 56.5605 12.0342 56.8327 12.7083 56.8327H43.2083C45.2306 56.8327 47.17 56.0162 48.6 54.5628C50.0299 53.1094 50.8333 51.1381 50.8333 49.0827V12.916C50.8333 10.8606 50.0299 8.88935 48.6 7.43594C47.17 5.98253 45.2306 5.16602 43.2083 5.16602ZM45.75 49.0827C45.75 49.7678 45.4822 50.4249 45.0055 50.9094C44.5289 51.3938 43.8824 51.666 43.2083 51.666H15.25V10.3327H43.2083C43.8824 10.3327 44.5289 10.6049 45.0055 11.0893C45.4822 11.5738 45.75 12.2309 45.75 12.916V49.0827Z" fill="#9D1111"/>
</svg>
